<svg width="198" height="129" viewBox="0 0 198 129" fill="none" xmlns="http://www.w3.org/2000/svg">
  <title>HQBase</title>
  <ellipse cx="101" cy="83" rx="91" ry="27" transform="rotate(-8 101 83)" stroke="#FF9300" stroke-width="10" />
  <path d="M40.1599 84.4498C38.2654 86.1499 35.8972 87 33.0555 87C30.1408 87 27.7363 86.1499 25.8418 84.4498C23.9473 82.7497 23 80.6246 23 78.0744V9.02367C23 6.40812 23.9473 4.25028 25.8418 2.55017C27.7363 0.850057 30.1408 0 33.0555 0C35.8972 0 38.2654 0.850057 40.1599 2.55017C42.0544 4.25028 43.0016 6.40812 43.0016 9.02367V25.1094C47.3007 23.2785 52.0005 22.363 57.1011 22.363C63.2219 22.363 68.7597 23.54 73.7145 25.894C78.7422 28.248 82.7499 31.7463 85.7374 36.389C88.5791 40.9008 90 46.2954 90 52.5727V78.0744C90 80.5592 89.0163 82.6516 87.0489 84.3517C85.1544 86.1172 82.8227 87 80.0538 87C77.2121 87 74.8075 86.1172 72.8401 84.3517C70.9456 82.6516 69.9984 80.5592 69.9984 78.0744V52.5727C69.9984 49.434 69.4154 46.982 68.2496 45.2165C67.0837 43.5163 65.5536 42.2413 63.659 41.3912C61.5459 40.4104 59.0685 39.92 56.2268 39.92C53.5307 39.92 51.1262 40.3777 49.013 41.2931C47.1185 42.1432 45.5884 43.2548 44.4225 44.628C43.4753 45.9357 43.0016 47.407 43.0016 49.0417V78.0744C43.0016 80.6246 42.0544 82.7497 40.1599 84.4498Z" fill="#FF4F00" />
  <path d="M163.023 107.562C161.038 109.187 158.649 110 155.855 110C153.061 110 150.672 109.187 148.687 107.562C146.702 105.871 145.71 103.693 145.71 101.027V83.7635C145.342 83.9585 145.012 84.1211 144.718 84.2511C139.866 86.5269 134.499 87.6648 128.618 87.6648C121.854 87.6648 115.79 86.2343 110.423 83.3733C105.056 80.5123 100.793 76.6435 97.6314 71.7668C94.5438 66.8901 93 61.4282 93 55.3812C93 49.2691 94.6173 43.7421 97.852 38.8004C101.013 33.9238 105.35 30.0874 110.864 27.2915C116.451 24.4305 122.663 23 129.5 23C136.263 23 142.402 24.398 147.915 27.1939C153.429 29.9899 157.766 33.8262 160.927 38.7029C164.162 43.5146 165.853 48.9114 166 54.8935V101.027C166 103.693 165.008 105.871 163.023 107.562ZM121.119 68.5482C123.545 69.8487 126.339 70.4989 129.5 70.4989C132.661 70.4989 135.455 69.8487 137.881 68.5482C140.38 67.3128 142.328 65.5572 143.725 63.2814C145.195 60.9406 145.931 58.3072 145.931 55.3812C145.931 52.3901 145.195 49.7567 143.725 47.4809C142.328 45.2052 140.38 43.417 137.881 42.1166C135.455 40.8161 132.661 40.1659 129.5 40.1659C126.412 40.1659 123.619 40.8161 121.119 42.1166C118.62 43.417 116.635 45.2052 115.165 47.4809C113.694 49.7567 112.959 52.3901 112.959 55.3812C112.959 58.3072 113.694 60.9081 115.165 63.1839C116.635 65.4596 118.62 67.2478 121.119 68.5482Z" fill="#FF4F00" />
</svg>
